<svg width="18" height="15" viewBox="0 0 18 15" fill="none" xmlns="http://www.w3.org/2000/svg">
<path d="M8.61619 2.78068C11.5849 2.78068 14.2324 4.44909 15.5248 7.08877C15.0627 8.04439 14.4125 8.86684 13.6371 9.53264L14.7415 10.6371C15.8303 9.67363 16.6919 8.46736 17.2324 7.08877C15.8773 3.65013 12.5326 1.2141 8.61619 1.2141C7.62141 1.2141 6.6658 1.37076 5.76501 1.66057L7.05744 2.953C7.56658 2.85117 8.08355 2.78068 8.61619 2.78068ZM7.77807 3.67363L9.39948 5.29504C9.84595 5.49086 10.2063 5.85118 10.4021 6.29765L12.0235 7.91906C12.0862 7.65274 12.1332 7.37076 12.1332 7.08094C12.141 5.13838 10.5587 3.56397 8.61619 3.56397C8.32637 3.56397 8.05222 3.60313 7.77807 3.67363ZM0.791123 1.11227L2.89034 3.21149C1.61358 4.2141 0.603133 5.54569 0 7.08877C1.35509 10.5274 4.69974 12.9634 8.61619 12.9634C9.80679 12.9634 10.9504 12.7363 12 12.3211L14.6789 15L15.7833 13.8956L1.89556 0L0.791123 1.11227ZM6.6658 6.98695L8.71018 9.03133C8.67885 9.03916 8.64752 9.047 8.61619 9.047C7.53525 9.047 6.65796 8.16971 6.65796 7.08877C6.65796 7.04961 6.6658 7.02611 6.6658 6.98695ZM4.00261 4.32376L5.37337 5.69452C5.19321 6.12533 5.09138 6.5953 5.09138 7.08877C5.09138 9.03133 6.67363 10.6136 8.61619 10.6136C9.10966 10.6136 9.57964 10.5118 10.0026 10.3316L10.7702 11.0992C10.0809 11.2872 9.36031 11.3969 8.61619 11.3969C5.64752 11.3969 3 9.72846 1.70757 7.08877C2.25587 5.96867 3.05483 5.04439 4.00261 4.32376Z" fill="#7B7B7B"/>
</svg>
