<svg width="21" height="20" viewBox="0 0 21 20" fill="none" xmlns="http://www.w3.org/2000/svg">
<path d="M11.3344 4.28571C11.3344 3.81233 10.9504 3.42857 10.4767 3.42857C10.0029 3.42857 9.61892 3.81233 9.61892 4.28571V10C9.61892 10.2955 9.77127 10.5702 10.0221 10.7269L13.453 12.8697C13.8547 13.1206 14.3839 12.9986 14.635 12.5971C14.886 12.1957 14.7639 11.6669 14.3622 11.416L11.3344 9.52493V4.28571Z" fill="#4E4E4E"/>
<path fill-rule="evenodd" clip-rule="evenodd" d="M10.4767 0C4.94998 0 0.469727 4.47715 0.469727 10C0.469727 15.5228 4.94998 20 10.4767 20C16.0033 20 20.4836 15.5228 20.4836 10C20.4836 4.47715 16.0033 0 10.4767 0ZM2.1852 10C2.1852 5.42393 5.89741 1.71429 10.4767 1.71429C15.0559 1.71429 18.7681 5.42393 18.7681 10C18.7681 14.5761 15.0559 18.2857 10.4767 18.2857C5.89741 18.2857 2.1852 14.5761 2.1852 10Z" fill="#4E4E4E"/>
</svg>
