<svg width="15" height="15" viewBox="0 0 15 15" fill="none" xmlns="http://www.w3.org/2000/svg">
<path d="M7.5 1.875C8.53125 1.875 9.375 2.71875 9.375 3.75C9.375 4.78125 8.53125 5.625 7.5 5.625C6.46875 5.625 5.625 4.78125 5.625 3.75C5.625 2.71875 6.46875 1.875 7.5 1.875ZM7.5 11.25C10.0312 11.25 12.9375 12.4594 13.125 13.125H1.875C2.09063 12.45 4.97813 11.25 7.5 11.25ZM7.5 0C5.42812 0 3.75 1.67812 3.75 3.75C3.75 5.82188 5.42812 7.5 7.5 7.5C9.57187 7.5 11.25 5.82188 11.25 3.75C11.25 1.67812 9.57187 0 7.5 0ZM7.5 9.375C4.99687 9.375 0 10.6313 0 13.125V15H15V13.125C15 10.6313 10.0031 9.375 7.5 9.375Z" fill="#7B7B7B"/>
</svg>
