<svg width="12" height="15" viewBox="0 0 12 15" fill="none" xmlns="http://www.w3.org/2000/svg">
<path d="M10 5H9.28571V3.57143C9.28571 1.6 7.68571 0 5.71429 0C3.74286 0 2.14286 1.6 2.14286 3.57143V5H1.42857C0.642857 5 0 5.64286 0 6.42857V13.5714C0 14.3571 0.642857 15 1.42857 15H10C10.7857 15 11.4286 14.3571 11.4286 13.5714V6.42857C11.4286 5.64286 10.7857 5 10 5ZM3.57143 3.57143C3.57143 2.38571 4.52857 1.42857 5.71429 1.42857C6.9 1.42857 7.85714 2.38571 7.85714 3.57143V5H3.57143V3.57143ZM10 13.5714H1.42857V6.42857H10V13.5714ZM5.71429 11.4286C6.5 11.4286 7.14286 10.7857 7.14286 10C7.14286 9.21429 6.5 8.57143 5.71429 8.57143C4.92857 8.57143 4.28571 9.21429 4.28571 10C4.28571 10.7857 4.92857 11.4286 5.71429 11.4286Z" fill="#7B7B7B"/>
</svg>
