<svg width="32" height="20" viewBox="0 0 32 20" fill="none" xmlns="http://www.w3.org/2000/svg">
<path d="M20.0776 11.0531C19.7088 11.5138 19.0361 11.5885 18.5751 11.2199L16.7486 9.75976V14.6588C16.7486 15.2487 16.27 15.727 15.6796 15.727C15.0893 15.727 14.6107 15.2487 14.6107 14.6588V9.7597L12.7841 11.2199C12.3231 11.5885 11.6504 11.5138 11.2816 11.0531C10.9128 10.5924 10.9875 9.92017 11.4485 9.55161L15.008 6.70599C15.1894 6.55944 15.4197 6.47097 15.6706 6.4689C15.6736 6.46887 15.6766 6.46886 15.6796 6.46886L15.6831 6.46887C15.9384 6.46968 16.1726 6.5599 16.356 6.70985L19.9107 9.55161C20.3717 9.92017 20.4464 10.5924 20.0776 11.0531Z" fill="#4E4E4E"/>
<path fill-rule="evenodd" clip-rule="evenodd" d="M10.52 3.54047C11.8908 1.4121 14.2835 0 17.0079 0C21.1136 0 24.4697 3.2068 24.7049 7.25066C24.7953 7.24686 24.8861 7.24493 24.9774 7.24493C28.502 7.24493 31.3593 10.1003 31.3593 13.6225C31.3593 17.1447 28.502 20 24.9774 20H8.37432C3.74931 20 0 16.2533 0 11.6315C0 7.00968 3.74931 3.26297 8.37432 3.26297C9.11501 3.26297 9.83439 3.35932 10.52 3.54047ZM17.0079 2.1365C14.7982 2.1365 12.8869 3.42171 11.9854 5.28968C11.743 5.79192 11.1549 6.02339 10.6349 5.82119C9.93542 5.54921 9.17365 5.39947 8.37432 5.39947C4.93009 5.39947 2.13798 8.18964 2.13798 11.6315C2.13798 15.0733 4.93009 17.8635 8.37432 17.8635H24.9774C27.3212 17.8635 29.2213 15.9647 29.2213 13.6225C29.2213 11.2802 27.3212 9.38143 24.9774 9.38143C24.596 9.38143 24.2279 9.43143 23.8787 9.52465C23.5363 9.61603 23.1709 9.53192 22.903 9.30008C22.6351 9.06823 22.4996 8.7188 22.5412 8.36712C22.5669 8.15035 22.5801 7.92937 22.5801 7.70485C22.5801 4.62953 20.0854 2.1365 17.0079 2.1365Z" fill="#4E4E4E"/>
</svg>
